<svg xmlns="http://www.w3.org/2000/svg" viewBox="0 0 60 42" role="img" aria-label="Bandeira dos Estados Unidos">
  <rect width="60" height="42" rx="2" fill="#fff"/>
  <g fill="#b22234">
    <path d="M0 0h60v3.24H0zm0 6.46h60V9.7H0zm0 6.46h60v3.24H0zm0 6.46h60v3.24H0zm0 6.46h60v3.24H0zm0 6.46h60v3.24H0zm0 6.46h60V42H0z"/>
  </g>
  <path d="M0 0h28v22.62H0z" fill="#3c3b6e"/>
  <g fill="#fff">
    <circle cx="3" cy="3" r=".7"/><circle cx="8" cy="3" r=".7"/><circle cx="13" cy="3" r=".7"/><circle cx="18" cy="3" r=".7"/><circle cx="23" cy="3" r=".7"/>
    <circle cx="5.5" cy="6.8" r=".7"/><circle cx="10.5" cy="6.8" r=".7"/><circle cx="15.5" cy="6.8" r=".7"/><circle cx="20.5" cy="6.8" r=".7"/><circle cx="25.5" cy="6.8" r=".7"/>
    <circle cx="3" cy="10.6" r=".7"/><circle cx="8" cy="10.6" r=".7"/><circle cx="13" cy="10.6" r=".7"/><circle cx="18" cy="10.6" r=".7"/><circle cx="23" cy="10.6" r=".7"/>
    <circle cx="5.5" cy="14.4" r=".7"/><circle cx="10.5" cy="14.4" r=".7"/><circle cx="15.5" cy="14.4" r=".7"/><circle cx="20.5" cy="14.4" r=".7"/><circle cx="25.5" cy="14.4" r=".7"/>
    <circle cx="3" cy="18.2" r=".7"/><circle cx="8" cy="18.2" r=".7"/><circle cx="13" cy="18.2" r=".7"/><circle cx="18" cy="18.2" r=".7"/><circle cx="23" cy="18.2" r=".7"/>
  </g>
</svg>
